<svg width="200" height="200" viewBox="0 0 200 200" fill="none" xmlns="http://www.w3.org/2000/svg">
<rect x="42.3112" y="2" width="161" height="161" rx="14" transform="rotate(14.5 42.3112 2)" fill="#4B0082"/>
<rect x="42.3112" y="2" width="161" height="161" rx="14" transform="rotate(14.5 42.3112 2)" fill="url(#paint0_linear_0_1)" fill-opacity="0.5"/>
<rect x="42.3112" y="2" width="161" height="161" rx="14" transform="rotate(14.5 42.3112 2)" fill="url(#paint1_linear_0_1)" fill-opacity="0.5"/>
<rect x="159.305" y="42" width="25.1832" height="25.1832" rx="4" transform="rotate(14.5 159.305 42)" fill="#E7DBEF"/>
<path d="M37.5071 113.358L30.2233 141.522L26.8128 140.64L34.0966 112.475L37.5071 113.358ZM43.1532 131.309L39.867 144.016L36.6215 143.176L42.0843 122.053L45.2198 122.864L44.3663 126.165L44.6413 126.236C45.4138 125.291 46.3884 124.624 47.5653 124.234C48.7445 123.834 50.1317 123.841 51.7269 124.254C53.1572 124.623 54.3327 125.24 55.2536 126.105C56.1769 126.96 56.7836 128.056 57.0737 129.392C57.3661 130.72 57.28 132.282 56.8152 134.079L53.3441 147.501L50.0986 146.662L53.5128 133.46C53.942 131.8 53.8454 130.396 53.2231 129.247C52.6031 128.089 51.5414 127.316 50.0378 126.927C49.0018 126.659 48.0177 126.644 47.0856 126.883C46.1626 127.123 45.3559 127.614 44.6655 128.355C43.975 129.096 43.471 130.08 43.1532 131.309ZM67.1371 151.538C65.3768 151.083 63.9378 150.236 62.8201 148.998C61.7047 147.751 60.9776 146.213 60.6387 144.385C60.3022 142.547 60.4232 140.509 61.0017 138.272C61.5755 136.054 62.4539 134.227 63.6369 132.792C64.8198 131.356 66.2048 130.37 67.7916 129.831C69.3785 129.293 71.0612 129.254 72.8398 129.714C74.215 130.069 75.2422 130.58 75.9213 131.244C76.6119 131.902 77.0934 132.574 77.3657 133.261C77.6496 133.941 77.8633 134.495 78.0068 134.923L78.2819 134.995L80.9706 124.598L84.2161 125.437L76.9323 153.602L73.7969 152.791L74.6362 149.545L74.2511 149.446C73.9132 149.769 73.4483 150.167 72.8565 150.64C72.2671 151.104 71.5051 151.459 70.5706 151.707C69.6384 151.945 68.4939 151.889 67.1371 151.538ZM68.3311 148.736C69.633 149.073 70.8209 149.018 71.8948 148.572C72.9711 148.117 73.8995 147.345 74.6801 146.255C75.463 145.157 76.0607 143.81 76.4733 142.215C76.8811 140.638 77.0087 139.199 76.8562 137.898C76.706 136.587 76.2671 135.486 75.5393 134.593C74.8139 133.692 73.7911 133.07 72.4709 132.729C71.0957 132.373 69.8584 132.43 68.759 132.899C67.6712 133.361 66.7428 134.133 65.9738 135.215C65.2163 136.291 64.6455 137.571 64.2614 139.057C63.8726 140.56 63.7485 141.986 63.8892 143.333C64.0414 144.673 64.4777 145.823 65.198 146.782C65.9299 147.734 66.9742 148.385 68.3311 148.736ZM83.3271 155.255L88.7899 134.132L92.0354 134.971L86.5726 156.095L83.3271 155.255ZM91.3506 131.038C90.718 130.875 90.2282 130.518 89.8813 129.969C89.5435 129.422 89.4528 128.846 89.6093 128.241C89.7658 127.635 90.1244 127.176 90.6851 126.861C91.2549 126.548 91.8561 126.474 92.4887 126.638C93.1213 126.801 93.6065 127.157 93.9443 127.704C94.2913 128.253 94.3865 128.83 94.23 129.436C94.0735 130.041 93.7104 130.499 93.1405 130.812C92.5799 131.126 91.9832 131.202 91.3506 131.038ZM108.062 152.438L111.292 139.952L114.537 140.791L109.074 161.914L105.829 161.075L106.754 157.499L106.534 157.442C105.761 158.387 104.755 159.1 103.515 159.581C102.278 160.054 100.862 160.084 99.2668 159.671C97.9466 159.33 96.8478 158.737 95.9703 157.894C95.0953 157.042 94.5161 155.953 94.2328 154.628C93.9519 153.293 94.0438 151.728 94.5086 149.931L97.9797 136.509L101.225 137.348L97.811 150.55C97.4126 152.09 97.5258 153.43 98.1505 154.57C98.7844 155.712 99.7752 156.457 101.123 156.806C101.93 157.015 102.804 157.02 103.745 156.824C104.695 156.629 105.564 156.179 106.353 155.474C107.151 154.77 107.721 153.759 108.062 152.438ZM115.019 163.451L120.482 142.328L123.617 143.139L122.764 146.44L123.039 146.511C123.77 145.497 124.707 144.805 125.849 144.435C126.994 144.056 128.254 144.045 129.629 144.4C131.023 144.761 132.101 145.377 132.863 146.249C133.637 147.114 134.139 148.178 134.37 149.441L134.59 149.498C135.413 148.547 136.449 147.891 137.697 147.529C138.947 147.157 140.328 147.167 141.841 147.559C143.73 148.047 145.121 149.038 146.017 150.531C146.914 152.015 147.042 154 146.399 156.484L142.743 170.621L139.498 169.782L143.154 155.645C143.557 154.086 143.418 152.862 142.739 151.972C142.059 151.083 141.142 150.488 139.987 150.19C138.502 149.805 137.235 149.957 136.187 150.645C135.141 151.323 134.441 152.345 134.088 153.711L130.531 167.463L127.231 166.61L130.972 152.142C131.283 150.941 131.143 149.873 130.554 148.938C129.966 147.994 129.059 147.363 127.83 147.046C126.987 146.827 126.14 146.848 125.29 147.108C124.45 147.37 123.702 147.841 123.046 148.523C122.402 149.197 121.946 150.053 121.679 151.089L118.264 164.291L115.019 163.451Z" fill="white"/>
<path d="M47.9949 30.9182L48.4395 29.1992L57.0108 21.1603L58.3654 21.5106L57.711 24.041L56.8515 23.8187L50.7171 29.5829L50.6887 29.6929L59.0293 31.8499L58.5634 33.6514L47.9949 30.9182ZM53.9603 35.3954L54.8067 32.1224L55.0232 31.342L57.6159 21.3168L59.6306 21.8378L55.9887 35.9199L53.9603 35.3954ZM68.6227 23.9579C69.2495 24.1249 69.8387 24.3995 70.3903 24.7818C70.9419 25.1641 71.3971 25.6731 71.756 26.3088C72.1195 26.9457 72.3359 27.7352 72.4052 28.6775C72.4803 29.6163 72.3542 30.7281 72.0268 32.0128C71.7079 33.2459 71.3002 34.3118 70.8037 35.2104C70.3084 36.1045 69.7439 36.8217 69.1102 37.362C68.4811 37.9036 67.7943 38.2615 67.0499 38.4358C66.3055 38.61 65.523 38.5911 64.7024 38.3789C63.8636 38.1619 63.1613 37.8043 62.5958 37.3059C62.0302 36.8075 61.6187 36.2144 61.3613 35.5267C61.105 34.8345 61.0249 34.0948 61.1208 33.3078L63.218 33.8502C63.1991 34.4908 63.3518 35.0536 63.6764 35.5386C64.0066 36.0202 64.5087 36.3481 65.1826 36.5223C66.214 36.7891 67.1347 36.5479 67.9446 35.7988C68.7557 35.0451 69.3728 33.8598 69.7959 32.2428L69.6859 32.2144C69.3456 32.5469 68.9599 32.8091 68.5288 33.0008C68.1023 33.1938 67.6489 33.3113 67.1685 33.3533C66.6882 33.3954 66.1982 33.3518 65.6985 33.2226C64.8871 33.0127 64.2007 32.6224 63.6391 32.0517C63.0776 31.481 62.6898 30.7963 62.4758 29.9976C62.2617 29.1989 62.2703 28.3525 62.5015 27.4587C62.7315 26.5694 63.1418 25.8147 63.7325 25.1948C64.3278 24.576 65.0444 24.15 65.8823 23.9168C66.726 23.6801 67.6395 23.6939 68.6227 23.9579ZM68.1672 25.7475C67.6309 25.6087 67.1129 25.6166 66.6132 25.7711C66.1193 25.9221 65.6905 26.1902 65.3268 26.5754C64.9643 26.9561 64.7125 27.4191 64.5714 27.9646C64.4303 28.5101 64.4215 29.036 64.5449 29.5423C64.674 30.0452 64.9134 30.4813 65.2629 30.8504C65.6183 31.2162 66.0664 31.469 66.6073 31.6089C67.0107 31.7133 67.4068 31.7325 67.7954 31.6668C68.1841 31.601 68.5447 31.4644 68.8771 31.2569C69.2107 31.0449 69.4965 30.7813 69.7345 30.4663C69.9725 30.1513 70.1418 29.7989 70.2426 29.4093C70.3766 28.8913 70.3773 28.378 70.2447 27.8693C70.1168 27.3618 69.8746 26.9177 69.5182 26.537C69.1631 26.1517 68.7127 25.8885 68.1672 25.7475Z" fill="white"/>
<defs>
<linearGradient id="paint0_linear_0_1" x1="201.036" y1="141.709" x2="62.3994" y2="19.0122" gradientUnits="userSpaceOnUse">
<stop stop-opacity="0"/>
<stop offset="1" stop-color="#B961FC"/>
</linearGradient>
<linearGradient id="paint1_linear_0_1" x1="121.982" y1="-6.20953" x2="121.84" y2="141.016" gradientUnits="userSpaceOnUse">
<stop stop-opacity="0"/>
<stop offset="1" stop-color="#220A34"/>
</linearGradient>
</defs>
</svg>
